<svg width="185" height="35" viewBox="0 0 185 35" fill="none" xmlns="http://www.w3.org/2000/svg">
<path fill-rule="evenodd" clip-rule="evenodd" d="M16.0376 7.64209L19.4845 11.2805C19.4845 11.2805 25.2627 10.2412 28.714 11.2805C32.4586 12.4082 36.9179 17.0233 36.9179 17.0233C36.9179 17.0233 33.1827 21.8434 29.7395 23.1763C26.0047 24.622 19.4845 23.1763 19.4845 23.1763L16.1115 26.924C19.213 31.4713 24.4352 34.4568 30.3548 34.4568C39.8697 34.4568 47.5831 26.7434 47.5831 17.2284C47.5831 7.71341 39.8697 0 30.3548 0C24.3879 0 19.1295 3.03334 16.0376 7.64209Z" fill="white"/>
<path d="M13.5366 13.9468L0 17.4335L13.5366 20.7151L17.0233 17.4335L13.5366 13.9468Z" fill="white"/>
<path fill-rule="evenodd" clip-rule="evenodd" d="M71.7849 4.51219H64.4013V9.02438H71.3747C73.4136 9.02438 75.0665 10.6773 75.0665 12.7162C75.0665 14.7551 73.4136 16.408 71.3747 16.408H70.1549H65.7912H64.4013L64.4013 4.51219H59.0687V30.3548H64.4013L64.4013 16.408L65.0237 17.1463H65.0145L68.1485 20.9202H68.2048L75.4659 29.5344H81.2195L73.7572 20.6815C77.3355 19.7985 79.9889 16.5672 79.9889 12.7162C79.9889 8.18524 76.3159 4.51219 71.7849 4.51219Z" fill="white"/>
<path fill-rule="evenodd" clip-rule="evenodd" d="M99.6785 4.51219H93.9357L93.7306 4.51219L84.0909 29.5344H89.8337L96.7045 11.6994L99.7827 19.6896H95.5765L93.7306 24.612H101.679L103.575 29.5344H109.318L99.6785 4.51219Z" fill="white"/>
<path fill-rule="evenodd" clip-rule="evenodd" d="M111.574 4.51219H131.264V9.84479L119.339 25.0222H131.264V29.5344H111.574V25.0222L123.499 9.84479H111.574V4.51219Z" fill="white"/>
<path fill-rule="evenodd" clip-rule="evenodd" d="M135.776 4.51219H155.466V9.84479L143.541 25.0222H155.466V29.5344H135.776V25.0222L147.7 9.84479H135.776V4.51219Z" fill="white"/>
<path fill-rule="evenodd" clip-rule="evenodd" d="M172.079 30.3548C179.215 30.3548 185 24.5697 185 17.4335C185 10.2972 179.215 4.51219 172.079 4.51219C164.942 4.51219 159.157 10.2972 159.157 17.4335C159.157 24.5697 164.942 30.3548 172.079 30.3548ZM172.079 25.4324C176.496 25.4324 180.078 21.8511 180.078 17.4335C180.078 13.0158 176.496 9.43458 172.079 9.43458C167.661 9.43458 164.08 13.0158 164.08 17.4335C164.08 21.8511 167.661 25.4324 172.079 25.4324Z" fill="white"/>
</svg>
